<!-- ph.arrowcounterclockwise.bold: outlined from src/components/ui/juno-icons by `node scripts/generate-native-icons.mjs --outline-juno`. Do not edit. -->
<svg xmlns="http://www.w3.org/2000/svg" viewBox="0 0 256 256" data-source="56eeab4cb199167b">
  <path d="M46.9,27.94L54.98,58.1C91.47,19.74 151.96,15.98 193.07,50.48C235.88,86.41 241.46,150.25 205.53,193.06C169.59,235.87 105.76,241.45 62.94,205.52C58.21,201.54 57.59,194.48 61.57,189.74C65.54,185 72.61,184.38 77.34,188.36C110.68,216.34 160.39,212 188.37,178.66C216.35,145.32 212.01,95.62 178.67,67.64C151.39,44.74 113.14,43.49 84.83,62.09L99.33,58.21C105.31,56.6 111.45,60.15 113.05,66.13C114.65,72.1 111.1,78.24 105.13,79.84L52.96,93.82C52.95,93.82 52.94,93.82 52.93,93.82C52.58,93.91 52.23,93.99 51.88,94.05C51.71,94.08 51.54,94.1 51.38,94.11C51.18,94.14 50.99,94.16 50.79,94.17C50.6,94.19 50.4,94.2 50.22,94.19C50.04,94.2 49.87,94.2 49.69,94.19C49.5,94.19 49.31,94.18 49.13,94.15C48.95,94.15 48.77,94.13 48.6,94.1C48.42,94.08 48.24,94.05 48.07,94.01C47.88,93.99 47.7,93.95 47.52,93.9C47.34,93.87 47.17,93.82 47.01,93.76C46.83,93.72 46.64,93.67 46.46,93.6C46.27,93.54 46.09,93.47 45.91,93.39C45.75,93.34 45.6,93.27 45.44,93.2C45.11,93.05 44.79,92.89 44.48,92.71C44.47,92.7 44.46,92.7 44.46,92.7C44.46,92.7 44.46,92.7 44.46,92.7C44.14,92.51 43.83,92.31 43.53,92.1C43.39,92 43.26,91.9 43.14,91.79C42.97,91.68 42.82,91.55 42.67,91.41C42.53,91.29 42.38,91.16 42.26,91.02C42.13,90.91 42,90.78 41.88,90.65C41.75,90.52 41.63,90.38 41.52,90.22C41.39,90.1 41.28,89.96 41.17,89.81C41.06,89.67 40.96,89.53 40.87,89.38C40.75,89.23 40.65,89.07 40.55,88.91C40.45,88.76 40.36,88.61 40.29,88.45C40.19,88.3 40.1,88.13 40.02,87.95C39.93,87.78 39.84,87.59 39.78,87.41C39.7,87.26 39.64,87.11 39.58,86.95C39.45,86.6 39.34,86.25 39.24,85.9C39.24,85.9 39.24,85.9 39.24,85.9L25.27,33.74C23.67,27.76 27.21,21.62 33.19,20.02C39.16,18.42 45.3,21.96 46.9,27.94Z"/>
</svg>
