<!-- ph.database.bold: outlined from src/components/ui/juno-icons by `node scripts/generate-native-icons.mjs --outline-juno`. Do not edit. -->
<svg xmlns="http://www.w3.org/2000/svg" viewBox="0 0 256 256" data-source="0ad8b23714acc8fc">
  <path d="M229.13,63.75C229.15,63.9 229.17,64.06 229.17,64.22C229.21,64.37 229.21,64.53 229.2,64.7C229.21,65.31 229.21,65.38 229.21,65.86L229.21,191C229.21,191.05 229.2,191.1 229.2,191.15C229.2,191.2 229.2,191.25 229.2,191.3C229.2,191.35 229.2,191.4 229.18,191.45C229.17,192.13 229.08,192.79 228.93,193.43C226.12,220.52 182.13,237.57 129.03,237.8C75.16,238.04 29.96,220.89 27.08,193.45C26.93,192.81 26.84,192.14 26.83,191.45C26.81,191.4 26.81,191.35 26.81,191.3C26.81,191.25 26.81,191.2 26.81,191.15C26.81,191.1 26.81,191.05 26.81,191L26.81,65.08C26.8,64.6 26.8,64.52 26.81,63.91C27.59,35.23 73.74,17.17 129.03,17.41C183.87,17.65 228.96,35.83 229.13,63.75ZM49.21,190.73C49.34,194.7 55.96,200.75 69.14,205.91C84.69,211.99 106.08,215.5 128.94,215.4C151.44,215.31 172.35,211.72 187.49,205.66C200.29,200.54 206.67,194.61 206.81,190.73L206.81,158.25C188.43,168.7 160.31,174.67 129.03,174.81C96.97,174.95 67.98,168.93 49.21,158.23ZM126.98,112.59C95.71,112.46 67.62,106.49 49.21,96.1L49.21,127.73C49.34,131.7 55.96,137.75 69.14,142.91C84.69,149 106.08,152.51 128.94,152.41C151.44,152.31 172.35,148.72 187.49,142.66C200.29,137.55 206.67,131.62 206.81,127.73L206.81,96.02C188.03,106.72 159.04,112.73 126.98,112.59ZM69.14,49.31C55.93,54.48 49.31,60.55 49.2,64.52C49.2,64.61 49.2,64.61 49.2,64.7L49.2,64.92C49.21,64.95 49.21,64.97 49.21,65L49.21,65.36C49.16,69.14 55.22,75.02 67.91,80.2C83.08,86.4 104.24,90.09 127.07,90.19C149.93,90.29 171.32,86.78 186.87,80.7C200.05,75.54 206.67,69.49 206.81,65.51L206.81,65C206.81,64.97 206.81,64.94 206.81,64.91C206.81,64.85 206.81,64.78 206.81,64.7C206.91,60.92 200.85,55.01 188.1,49.8C172.94,43.6 151.77,39.91 128.94,39.81C106.08,39.71 84.69,43.22 69.14,49.31ZM26.81,64.92L26.82,64.79C26.81,64.78 26.81,64.76 26.81,64.75Z"/>
</svg>
