<!-- ph.listchecks.bold: outlined from src/components/ui/juno-icons by `node scripts/generate-native-icons.mjs --outline-juno`. Do not edit. -->
<svg xmlns="http://www.w3.org/2000/svg" viewBox="0 0 256 256" data-source="ccd5c52610953eac">
  <path d="M78.51,191C78.51,200.94 70.45,209 60.5,209C50.56,209 42.5,200.94 42.5,191C42.5,181.05 50.56,172.99 60.5,172.99C70.45,172.99 78.51,181.05 78.51,191ZM202.2,191C202.2,197.18 197.18,202.2 191,202.2L128,202.2C121.81,202.2 116.8,197.18 116.8,191C116.8,184.81 121.81,179.8 128,179.8L191,179.8C197.18,179.8 202.2,184.81 202.2,191ZM99.92,102.09C104.29,106.46 104.29,113.55 99.92,117.93L59.42,158.42C55.04,162.79 47.95,162.79 43.58,158.42L21.08,135.92C16.71,131.55 16.71,124.45 21.08,120.08C25.46,115.71 32.55,115.71 36.92,120.08L51.5,134.66L84.08,102.08C88.46,97.71 95.55,97.71 99.92,102.09ZM238.2,128C238.2,134.19 233.18,139.2 227,139.2L128,139.2C121.81,139.2 116.8,134.19 116.8,128C116.8,121.81 121.81,116.8 128,116.8L227,116.8C233.18,116.8 238.2,121.81 238.2,128ZM99.92,39.08C104.29,43.45 104.29,50.54 99.92,54.92L59.42,95.42C55.04,99.79 47.95,99.79 43.58,95.42L21.08,72.92C16.71,68.55 16.71,61.46 21.08,57.08C25.46,52.71 32.55,52.71 36.92,57.08L51.5,71.66L84.08,39.08C88.45,34.7 95.55,34.7 99.92,39.08ZM238.2,65C238.2,71.19 233.18,76.2 227,76.2L128,76.2C121.81,76.2 116.8,71.19 116.8,65C116.8,58.82 121.81,53.8 128,53.8L227,53.8C233.18,53.8 238.2,58.82 238.2,65Z"/>
</svg>
