<!-- ph.laptop: outlined from src/components/ui/juno-icons by `node scripts/generate-native-icons.mjs --outline-juno`. Do not edit. -->
<svg xmlns="http://www.w3.org/2000/svg" viewBox="0 0 256 256" data-source="0cb1b4945825d414">
  <path d="M244,209C244,213.42 240.42,217 236,217L20,217C15.58,217 12,213.42 12,209C12,204.58 15.58,201 20,201L236,201C240.42,201 244,204.58 244,209ZM226.01,78.86L226.01,141.14C226.01,168.78 213.78,181 186.14,181L69.86,181C42.23,181 30.01,168.78 30.01,141.14L30.01,78.86C30.01,51.22 42.23,39 69.86,39L186.14,39C213.78,39 226.01,51.22 226.01,78.86ZM69.86,55C51.06,55 46.01,60.06 46.01,78.86L46.01,141.14C46.01,159.94 51.06,165 69.86,165L186.14,165C204.95,165 210.01,159.94 210.01,141.14L210.01,78.86C210.01,60.06 204.95,55 186.14,55Z"/>
</svg>
